<mxfile host="65bd71144e">
    <diagram id="Gn6LVWQX27ou68GtFTYa" name="General">
        <mxGraphModel dx="1475" dy="1832" grid="1" gridSize="10" guides="1" tooltips="1" connect="1" arrows="1" fold="1" page="1" pageScale="1" pageWidth="827" pageHeight="1169" math="0" shadow="0">
            <root>
                <mxCell id="0"/>
                <mxCell id="1" parent="0"/>
                <mxCell id="10" value="Domain" style="swimlane;horizontal=0;fillColor=#a20025;fontColor=#ffffff;strokeColor=#6F0000;" parent="1" vertex="1">
                    <mxGeometry x="-10" y="460" width="570" height="140" as="geometry">
                        <mxRectangle x="10" y="390" width="30" height="70" as="alternateBounds"/>
                    </mxGeometry>
                </mxCell>
                <mxCell id="2" value="Entity" style="swimlane;childLayout=stackLayout;horizontal=1;startSize=30;horizontalStack=0;rounded=1;fontSize=14;fontStyle=0;strokeWidth=2;resizeParent=0;resizeLast=1;shadow=0;dashed=0;align=center;fillColor=#a20025;fontColor=#ffffff;strokeColor=#6F0000;" parent="10" vertex="1">
                    <mxGeometry x="200" y="25" width="120" height="90" as="geometry"/>
                </mxCell>
                <mxCell id="3" value="-id&#10;-props&#10;+create()" style="align=left;strokeColor=none;fillColor=none;spacingLeft=4;fontSize=12;verticalAlign=top;resizable=0;rotatable=0;part=1;" parent="2" vertex="1">
                    <mxGeometry y="30" width="120" height="60" as="geometry"/>
                </mxCell>
                <mxCell id="7" value="ValueObject" style="swimlane;childLayout=stackLayout;horizontal=1;startSize=30;horizontalStack=0;rounded=1;fontSize=14;fontStyle=0;strokeWidth=2;resizeParent=0;resizeLast=1;shadow=0;dashed=0;align=center;fillColor=#a20025;fontColor=#ffffff;strokeColor=#6F0000;" parent="10" vertex="1">
                    <mxGeometry x="370" y="25" width="130" height="90" as="geometry"/>
                </mxCell>
                <mxCell id="8" value="+ of()&#10;+ getValue()&#10;+ getFormatedValue()" style="align=left;strokeColor=none;fillColor=none;spacingLeft=4;fontSize=12;verticalAlign=top;resizable=0;rotatable=0;part=1;" parent="7" vertex="1">
                    <mxGeometry y="30" width="130" height="60" as="geometry"/>
                </mxCell>
                <mxCell id="9" style="edgeStyle=none;html=1;endArrow=diamond;endFill=1;" parent="10" source="3" target="8" edge="1">
                    <mxGeometry relative="1" as="geometry"/>
                </mxCell>
                <mxCell id="11" value="Application" style="swimlane;horizontal=0;fillColor=#e3c800;fontColor=#000000;strokeColor=#B09500;" parent="1" vertex="1">
                    <mxGeometry x="-10" y="300" width="570" height="150" as="geometry"/>
                </mxCell>
                <mxCell id="4" value="IUseCase" style="swimlane;childLayout=stackLayout;horizontal=1;startSize=30;horizontalStack=0;rounded=1;fontSize=14;fontStyle=2;strokeWidth=2;resizeParent=0;resizeLast=1;shadow=0;dashed=0;align=center;fillColor=#e3c800;fontColor=#000000;strokeColor=#B09500;" parent="11" vertex="1">
                    <mxGeometry x="176.25" y="20" width="177.5" height="90" as="geometry"/>
                </mxCell>
                <mxCell id="5" value="- repository: IRepository&#10;+ excecute(data: InputRequest)" style="align=left;strokeColor=none;fillColor=none;spacingLeft=4;fontSize=12;verticalAlign=top;resizable=0;rotatable=0;part=1;" parent="4" vertex="1">
                    <mxGeometry y="30" width="177.5" height="60" as="geometry"/>
                </mxCell>
                <mxCell id="12" value="Output" style="swimlane;horizontal=0;fillColor=#1ba1e2;fontColor=#ffffff;strokeColor=#006EAF;" parent="1" vertex="1">
                    <mxGeometry x="567" y="-110" width="260.5" height="560" as="geometry"/>
                </mxCell>
                <mxCell id="13" value="IRepository" style="swimlane;childLayout=stackLayout;horizontal=1;startSize=30;horizontalStack=0;rounded=1;fontSize=14;fontStyle=0;strokeWidth=2;resizeParent=0;resizeLast=1;shadow=0;dashed=0;align=center;fillColor=#1ba1e2;strokeColor=#006EAF;fontColor=#ffffff;" parent="12" vertex="1">
                    <mxGeometry x="52.5" y="400" width="155" height="80" as="geometry"/>
                </mxCell>
                <mxCell id="14" value="+ ...CRUD methods" style="align=left;strokeColor=none;fillColor=none;spacingLeft=4;fontSize=12;verticalAlign=top;resizable=0;rotatable=0;part=1;" parent="13" vertex="1">
                    <mxGeometry y="30" width="155" height="50" as="geometry"/>
                </mxCell>
                <mxCell id="57" value="EntityRepositoryParser" style="swimlane;childLayout=stackLayout;horizontal=1;startSize=30;horizontalStack=0;rounded=1;fontSize=14;fontStyle=0;strokeWidth=2;resizeParent=0;resizeLast=1;shadow=0;dashed=0;align=center;fillColor=#1ba1e2;strokeColor=#006EAF;fontColor=#ffffff;" parent="12" vertex="1">
                    <mxGeometry x="103" y="140" width="150.5" height="80" as="geometry"/>
                </mxCell>
                <mxCell id="58" value="+ parse()" style="align=left;strokeColor=none;fillColor=none;spacingLeft=4;fontSize=12;verticalAlign=top;resizable=0;rotatable=0;part=1;" parent="57" vertex="1">
                    <mxGeometry y="30" width="150.5" height="50" as="geometry"/>
                </mxCell>
                <mxCell id="60" style="edgeStyle=none;html=1;exitX=0.5;exitY=0;exitDx=0;exitDy=0;" parent="12" source="13" target="58" edge="1">
                    <mxGeometry relative="1" as="geometry"/>
                </mxCell>
                <mxCell id="15" style="edgeStyle=none;html=1;entryX=0;entryY=1;entryDx=0;entryDy=0;endArrow=classic;endFill=1;" parent="1" source="4" target="14" edge="1">
                    <mxGeometry relative="1" as="geometry"/>
                </mxCell>
                <mxCell id="16" value="Presentation (Input)" style="swimlane;horizontal=0;fillColor=#60a917;fontColor=#ffffff;strokeColor=#2D7600;" parent="1" vertex="1">
                    <mxGeometry x="-10" y="-110" width="570" height="400" as="geometry"/>
                </mxCell>
                <mxCell id="25" style="edgeStyle=none;html=1;entryX=0.5;entryY=1;entryDx=0;entryDy=0;fontSize=9;endArrow=diamond;endFill=1;exitX=0.75;exitY=0;exitDx=0;exitDy=0;" parent="16" source="17" target="61" edge="1">
                    <mxGeometry relative="1" as="geometry">
                        <mxPoint x="445" y="210" as="targetPoint"/>
                    </mxGeometry>
                </mxCell>
                <mxCell id="17" value="Controller" style="swimlane;childLayout=stackLayout;horizontal=1;startSize=30;horizontalStack=0;rounded=1;fontSize=14;fontStyle=2;strokeWidth=2;resizeParent=0;resizeLast=1;shadow=0;dashed=0;align=center;fillColor=#60a917;fontColor=#ffffff;strokeColor=#2D7600;" parent="16" vertex="1">
                    <mxGeometry x="160" y="277.5" width="230" height="75" as="geometry"/>
                </mxCell>
                <mxCell id="18" value="- useCase: IUseCase&#10;+ handle(request, response)" style="align=left;strokeColor=none;fillColor=none;spacingLeft=4;fontSize=12;verticalAlign=top;resizable=0;rotatable=0;part=1;" parent="17" vertex="1">
                    <mxGeometry y="30" width="230" height="45" as="geometry"/>
                </mxCell>
                <mxCell id="21" value="Http" style="swimlane;horizontal=0;fontSize=9;fillColor=#6a00ff;fontColor=#ffffff;strokeColor=#3700CC;" parent="16" vertex="1">
                    <mxGeometry x="330" y="20" width="210" height="210" as="geometry"/>
                </mxCell>
                <mxCell id="23" value="ResponseEntity" style="swimlane;childLayout=stackLayout;horizontal=1;startSize=30;horizontalStack=0;rounded=1;fontSize=14;fontStyle=2;strokeWidth=2;resizeParent=0;resizeLast=1;shadow=0;dashed=0;align=center;fillColor=#6a00ff;fontColor=#ffffff;strokeColor=#3700CC;" parent="21" vertex="1">
                    <mxGeometry x="40" y="10" width="150" height="80" as="geometry"/>
                </mxCell>
                <mxCell id="24" value="-status&#10;-data" style="align=left;strokeColor=none;fillColor=none;spacingLeft=4;fontSize=12;verticalAlign=top;resizable=0;rotatable=0;part=1;" parent="23" vertex="1">
                    <mxGeometry y="30" width="150" height="50" as="geometry"/>
                </mxCell>
                <mxCell id="63" style="edgeStyle=none;html=1;exitX=0.5;exitY=0;exitDx=0;exitDy=0;entryX=0.5;entryY=1;entryDx=0;entryDy=0;endArrow=diamond;endFill=1;" edge="1" parent="21" source="61" target="24">
                    <mxGeometry relative="1" as="geometry"/>
                </mxCell>
                <mxCell id="61" value="ResponseFactory" style="swimlane;childLayout=stackLayout;horizontal=1;startSize=30;horizontalStack=0;rounded=1;fontSize=14;fontStyle=0;strokeWidth=2;resizeParent=0;resizeLast=1;shadow=0;dashed=0;align=center;fillColor=#6a00ff;fontColor=#ffffff;strokeColor=#3700CC;" vertex="1" parent="21">
                    <mxGeometry x="40" y="110" width="150" height="50" as="geometry"/>
                </mxCell>
                <mxCell id="27" value="Model" style="swimlane;horizontal=0;fontSize=9;fillColor=#6a00ff;fontColor=#ffffff;strokeColor=#3700CC;" parent="16" vertex="1">
                    <mxGeometry x="30" y="20" width="190" height="210" as="geometry"/>
                </mxCell>
                <mxCell id="28" value="EntityModelParser" style="swimlane;childLayout=stackLayout;horizontal=1;startSize=30;horizontalStack=0;rounded=1;fontSize=13;fontStyle=0;strokeWidth=2;resizeParent=0;resizeLast=1;shadow=0;dashed=0;align=center;fillColor=#6a00ff;fontColor=#ffffff;strokeColor=#3700CC;" parent="27" vertex="1">
                    <mxGeometry x="30" y="120" width="150" height="80" as="geometry"/>
                </mxCell>
                <mxCell id="31" value="Model" style="swimlane;childLayout=stackLayout;horizontal=1;startSize=30;horizontalStack=0;rounded=1;fontSize=13;fontStyle=0;strokeWidth=2;resizeParent=0;resizeLast=1;shadow=0;dashed=0;align=center;fillColor=#6a00ff;fontColor=#ffffff;strokeColor=#3700CC;" parent="27" vertex="1">
                    <mxGeometry x="30" y="20" width="150" height="80" as="geometry"/>
                </mxCell>
                <mxCell id="30" style="edgeStyle=none;html=1;entryX=0.5;entryY=1;entryDx=0;entryDy=0;fontSize=9;endArrow=diamond;endFill=1;exitX=0.25;exitY=0;exitDx=0;exitDy=0;" parent="16" source="17" target="28" edge="1">
                    <mxGeometry relative="1" as="geometry"/>
                </mxCell>
                <mxCell id="35" style="edgeStyle=none;html=1;entryX=1;entryY=0.5;entryDx=0;entryDy=0;endArrow=classic;endFill=1;" parent="16" source="24" target="31" edge="1">
                    <mxGeometry relative="1" as="geometry"/>
                </mxCell>
                <mxCell id="19" style="edgeStyle=none;html=1;entryX=0.5;entryY=0;entryDx=0;entryDy=0;endArrow=diamond;endFill=1;" parent="1" source="18" target="4" edge="1">
                    <mxGeometry relative="1" as="geometry"/>
                </mxCell>
                <mxCell id="6" style="edgeStyle=none;html=1;entryX=0.5;entryY=0;entryDx=0;entryDy=0;endArrow=diamond;endFill=1;" parent="1" source="5" target="2" edge="1">
                    <mxGeometry relative="1" as="geometry"/>
                </mxCell>
                <mxCell id="26" style="edgeStyle=none;html=1;entryX=0;entryY=0.5;entryDx=0;entryDy=0;fontSize=9;endArrow=classic;endFill=1;" parent="1" source="18" target="13" edge="1">
                    <mxGeometry relative="1" as="geometry"/>
                </mxCell>
                <mxCell id="32" value="+ parse()" style="text;html=1;align=center;verticalAlign=middle;resizable=0;points=[];autosize=1;strokeColor=none;fillColor=none;fontSize=13;" parent="1" vertex="1">
                    <mxGeometry x="45" y="70" width="70" height="20" as="geometry"/>
                </mxCell>
                <mxCell id="33" style="edgeStyle=none;html=1;fontSize=13;endArrow=diamond;endFill=1;" parent="1" source="28" edge="1">
                    <mxGeometry relative="1" as="geometry">
                        <mxPoint x="125" y="20" as="targetPoint"/>
                    </mxGeometry>
                </mxCell>
                <mxCell id="36" value="Main" style="swimlane;horizontal=0;fillColor=#d80073;strokeColor=#A50040;glass=0;shadow=0;fontColor=#ffffff;fontStyle=0" parent="1" vertex="1">
                    <mxGeometry x="-10" y="-320" width="840" height="200" as="geometry"/>
                </mxCell>
                <mxCell id="44" style="edgeStyle=none;html=1;exitX=0.5;exitY=1;exitDx=0;exitDy=0;" parent="36" source="48" target="43" edge="1">
                    <mxGeometry relative="1" as="geometry">
                        <mxPoint x="500" y="60" as="sourcePoint"/>
                    </mxGeometry>
                </mxCell>
                <mxCell id="38" value="IServer" style="swimlane;childLayout=stackLayout;horizontal=1;startSize=30;horizontalStack=0;rounded=1;fontSize=14;fontStyle=2;strokeWidth=2;resizeParent=0;resizeLast=1;shadow=0;dashed=0;align=center;glass=0;fillColor=#d80073;fontColor=#ffffff;strokeColor=#A50040;" parent="36" vertex="1">
                    <mxGeometry x="60" y="30" width="160" height="60" as="geometry"/>
                </mxCell>
                <mxCell id="41" value="ExpressServerAdapter" style="swimlane;childLayout=stackLayout;horizontal=1;startSize=30;horizontalStack=0;rounded=1;fontSize=14;fontStyle=0;strokeWidth=2;resizeParent=0;resizeLast=1;shadow=0;dashed=0;align=center;glass=0;fillColor=#d80073;fontColor=#ffffff;strokeColor=#A50040;verticalAlign=top;" parent="36" vertex="1">
                    <mxGeometry x="40" y="130" width="160" height="60" as="geometry"/>
                </mxCell>
                <mxCell id="42" style="edgeStyle=none;html=1;dashed=1;entryX=0.5;entryY=1;entryDx=0;entryDy=0;" parent="36" source="41" target="38" edge="1">
                    <mxGeometry relative="1" as="geometry">
                        <mxPoint x="270" y="80" as="targetPoint"/>
                    </mxGeometry>
                </mxCell>
                <mxCell id="45" style="edgeStyle=none;html=1;entryX=1;entryY=0.5;entryDx=0;entryDy=0;endArrow=diamond;endFill=1;" parent="36" source="43" target="38" edge="1">
                    <mxGeometry relative="1" as="geometry"/>
                </mxCell>
                <mxCell id="65" style="edgeStyle=none;html=1;entryX=1;entryY=0.5;entryDx=0;entryDy=0;fontSize=20;endArrow=classic;endFill=1;" edge="1" parent="36" source="43" target="50">
                    <mxGeometry relative="1" as="geometry"/>
                </mxCell>
                <mxCell id="43" value="&lt;font style=&quot;font-size: 17px&quot;&gt;Config&lt;/font&gt;" style="whiteSpace=wrap;html=1;align=center;shadow=0;glass=1;fillColor=#d80073;fontColor=#ffffff;strokeColor=#A50040;gradientColor=none;rounded=1;" parent="36" vertex="1">
                    <mxGeometry x="560" y="120" width="100" height="50" as="geometry"/>
                </mxCell>
                <mxCell id="47" value="App" style="swimlane;childLayout=stackLayout;horizontal=1;startSize=30;horizontalStack=0;rounded=1;fontSize=14;fontStyle=0;strokeWidth=2;resizeParent=0;resizeLast=1;shadow=0;dashed=0;align=center;glass=0;fillColor=#d80073;fontColor=#ffffff;strokeColor=#A50040;" parent="36" vertex="1">
                    <mxGeometry x="617" y="10" width="160" height="90" as="geometry"/>
                </mxCell>
                <mxCell id="48" value="- port&#10;- server&#10;+ listen()" style="align=left;strokeColor=none;fillColor=none;spacingLeft=4;fontSize=12;verticalAlign=top;resizable=0;rotatable=0;part=1;shadow=0;glass=0;" parent="47" vertex="1">
                    <mxGeometry y="30" width="160" height="60" as="geometry"/>
                </mxCell>
                <mxCell id="50" value="Routes" style="whiteSpace=wrap;html=1;align=center;shadow=0;glass=1;fillColor=#d80073;fontColor=#ffffff;strokeColor=#A50040;rounded=1;fontSize=20;" parent="36" vertex="1">
                    <mxGeometry x="230" y="135" width="110" height="50" as="geometry"/>
                </mxCell>
                <mxCell id="53" style="edgeStyle=none;html=1;entryX=1;entryY=0.25;entryDx=0;entryDy=0;endArrow=classic;endFill=1;" parent="36" source="48" target="38" edge="1">
                    <mxGeometry relative="1" as="geometry"/>
                </mxCell>
                <mxCell id="49" style="edgeStyle=none;html=1;entryX=0.402;entryY=-0.022;entryDx=0;entryDy=0;entryPerimeter=0;endArrow=diamond;endFill=1;" parent="1" source="43" target="13" edge="1">
                    <mxGeometry relative="1" as="geometry"/>
                </mxCell>
                <mxCell id="52" style="edgeStyle=none;html=1;entryX=0.5;entryY=0;entryDx=0;entryDy=0;endArrow=diamond;endFill=1;" parent="1" source="50" target="17" edge="1">
                    <mxGeometry relative="1" as="geometry"/>
                </mxCell>
                <mxCell id="59" style="edgeStyle=none;html=1;entryX=0.424;entryY=0.002;entryDx=0;entryDy=0;entryPerimeter=0;endArrow=diamond;endFill=1;" parent="1" source="43" target="57" edge="1">
                    <mxGeometry relative="1" as="geometry"/>
                </mxCell>
            </root>
        </mxGraphModel>
    </diagram>
</mxfile>